<svg width="24" height="24" viewBox="0 0 24 24" fill="none" xmlns="http://www.w3.org/2000/svg">
<g clip-path="url(#clip0)">
<path d="M2.51512 16.2382L0.0147898 13.7379C-0.164315 13.5589 -0.26888 13.3187 -0.277804 13.0657C-0.286728 12.8127 -0.199346 12.5657 -0.0332941 12.3746C0.254498 12.0443 0.495623 11.7806 0.690784 11.5854C6.93949 5.33673 17.0695 5.33673 23.3182 11.5854C23.5134 11.7806 23.7552 12.0436 24.0423 12.3746C24.2083 12.5657 24.2957 12.8127 24.2868 13.0657C24.2779 13.3187 24.1733 13.5589 23.9942 13.7379L21.4939 16.2382C21.4063 16.326 21.2891 16.3781 21.1652 16.3844C21.0414 16.3906 20.9196 16.3506 20.8235 16.2721C20.6446 16.1258 20.5004 16.0112 20.388 15.9271C19.2667 15.0869 18.0249 14.4211 16.7046 13.9521C16.496 13.8779 16.3709 13.665 16.4077 13.4472L16.8432 10.831C13.7363 9.58998 10.2713 9.58998 7.16435 10.831L7.59851 13.443C7.61623 13.5497 7.59592 13.6593 7.54113 13.7526C7.48634 13.8459 7.40054 13.917 7.2987 13.9535C5.97932 14.4232 4.73848 15.0895 3.61821 15.9299C3.50578 16.014 3.36082 16.1279 3.18404 16.2736C3.08797 16.3518 2.96628 16.3915 2.84256 16.3851C2.71884 16.3787 2.60191 16.3266 2.51441 16.2389L2.51512 16.2382Z" fill="white"/>
</g>
<defs>
<clipPath id="clip0">
<rect width="24" height="24" fill="white"/>
</clipPath>
</defs>
</svg>
