<svg width="24" height="24" viewBox="0 0 24 24" fill="none" xmlns="http://www.w3.org/2000/svg">
<g clip-path="url(#clip0)">
<line x1="1.38484" y1="3.97057" x2="18.3848" y2="20.9706" stroke="#8A8A8A" stroke-width="2"/>
<path fill-rule="evenodd" clip-rule="evenodd" d="M18 17.1716V14.8L23.213 18.45C23.288 18.5025 23.3759 18.5335 23.4672 18.5395C23.5586 18.5455 23.6498 18.5263 23.731 18.484C23.8122 18.4417 23.8802 18.3779 23.9276 18.2996C23.9751 18.2214 24.0001 18.1315 24 18.04V5.96C24.0001 5.86846 23.9751 5.77865 23.9276 5.70035C23.8802 5.62206 23.8122 5.55829 23.731 5.51599C23.6498 5.4737 23.5586 5.4545 23.4672 5.4605C23.3759 5.4665 23.288 5.49746 23.213 5.55L18 9.2V5C18 4.73478 17.8946 4.48043 17.7071 4.29289C17.5196 4.10536 17.2652 4 17 4H4.82843L18 17.1716ZM17.7071 19.7071L8 10H6V8L2.29289 4.29289C2.10536 4.48043 2 4.73478 2 5V19C2 19.2652 2.10536 19.5196 2.29289 19.7071C2.48043 19.8946 2.73478 20 3 20H17C17.2652 20 17.5196 19.8946 17.7071 19.7071Z" fill="#8A8A8A"/>
</g>
<defs>
<clipPath id="clip0">
<rect width="24" height="24" fill="white"/>
</clipPath>
</defs>
</svg>
