<svg width="24" height="24" viewBox="0 0 24 24" fill="none" xmlns="http://www.w3.org/2000/svg">
<line x1="0.707107" y1="3.29289" x2="18.0312" y2="20.617" stroke="#8A8A8A" stroke-width="2"/>
<path fill-rule="evenodd" clip-rule="evenodd" d="M17 16.1716V14.8L22.213 18.45C22.288 18.5025 22.3759 18.5335 22.4672 18.5395C22.5586 18.5455 22.6498 18.5263 22.731 18.484C22.8122 18.4417 22.8802 18.3779 22.9276 18.2996C22.9751 18.2214 23.0001 18.1315 23 18.04V5.96C23.0001 5.86846 22.9751 5.77865 22.9276 5.70035C22.8802 5.62206 22.8122 5.55829 22.731 5.51599C22.6498 5.4737 22.5586 5.4545 22.4672 5.4605C22.3759 5.4665 22.288 5.49746 22.213 5.55L17 9.2V5C17 4.73478 16.8946 4.48043 16.7071 4.29289C16.5196 4.10536 16.2652 4 16 4H4.82843L6.82843 6H15V14.1716L17 16.1716ZM21 15.159L17 12.359V11.64L21 8.84V15.159Z" fill="#8A8A8A"/>
<path d="M17 19L15 17V18H3V6H4L2 4C1.73478 4 1.48043 4.10536 1.29289 4.29289C1.10536 4.48043 1 4.73478 1 5V19C1 19.2652 1.10536 19.5196 1.29289 19.7071C1.48043 19.8946 1.73478 20 2 20H16C16.2652 20 16.5196 19.8946 16.7071 19.7071C16.8946 19.5196 17 19.2652 17 19Z" fill="#8A8A8A"/>
</svg>
