<svg width="24" height="24" viewBox="0 0 24 24" fill="none" xmlns="http://www.w3.org/2000/svg">
<path d="M16.4246 17.839C15.3697 18.436 14.2044 18.8123 12.9996 18.945V23H10.9996V18.945C8.97071 18.7176 7.07936 17.8074 5.63575 16.3638C4.19215 14.9202 3.28199 13.0289 3.05458 11H5.06958C5.22548 12.0794 5.63137 13.1075 6.25489 14.0023C6.87842 14.8971 7.70235 15.6338 8.661 16.1539C9.61965 16.6739 10.6865 16.9628 11.7766 16.9975C12.8666 17.0323 13.9498 16.8119 14.9396 16.354L13.3886 14.804C12.6438 15.0194 11.8591 15.0586 11.0965 14.9186C10.3339 14.7785 9.61437 14.4631 8.99468 13.9971C8.37499 13.5312 7.87215 12.9275 7.52589 12.2338C7.17964 11.5401 6.99945 10.7753 6.99958 9.99999V8.41399L1.39258 2.80799L2.80758 1.39299L22.6066 21.193L21.1916 22.607L16.4246 17.839ZM19.3746 15.16L17.9316 13.718C18.4406 12.908 18.7876 11.988 18.9286 11H20.9446C20.7795 12.4966 20.2395 13.9275 19.3746 15.16ZM16.4646 12.251L7.68458 3.47099C8.23947 2.52312 9.09103 1.78432 10.1077 1.36874C11.1244 0.953157 12.2497 0.883907 13.3096 1.17169C14.3696 1.45947 15.3053 2.08827 15.9723 2.96095C16.6392 3.83364 17.0002 4.90164 16.9996 5.99999L17.0006 9.99999C17.0017 10.7818 16.8188 11.553 16.4666 12.251H16.4646Z" fill="black" fill-opacity="0.4"/>
</svg>
